<svg version="1.1" id="레이어_1" xmlns="http://www.w3.org/2000/svg" xmlns:xlink="http://www.w3.org/1999/xlink" x="0px"
	 y="0px" viewBox="0 0 300 75" enable-background="new 0 0 300 75" xml:space="preserve">
<g>
	<g>
		<path d="M125.5,25c-3.1-4.1-7.4-4.9-12.9-4.9c-5.5,0-9.8,0.9-13,4.9c-2.7,3.6-4.1,8.2-4.1,13.7c0,5.5,1.4,10,4.1,13.7
			c3.1,4.1,7.4,5,13,5c5.5,0,9.8-0.9,12.9-5c2.8-3.6,4.2-8.2,4.2-13.7C129.7,33.2,128.3,28.7,125.5,25z M122.2,49.8
			c-2.3,3.3-5.5,3.8-9.5,3.8c-4.1,0-7.4-0.5-9.7-3.8c-2-2.9-3-6.6-3-11c0-4.5,1-8.1,3-11.1c2.3-3.3,5.5-3.8,9.7-3.8
			c4.1,0,7.3,0.5,9.5,3.8c2.1,2.9,3.1,6.6,3.1,11.1C125.3,43.1,124.2,46.8,122.2,49.8z"/>
		<g>
			<path d="M125.9,24.8c-3.6-4.5-9-5.1-14.4-4.9c-3.4,0.1-6.4,0.9-9.3,2.6c-4.4,2.6-6.3,8.4-6.9,13.2c-0.8,5.9,0.4,12.2,3.9,17
				c3.4,4.7,9.2,5.1,14.5,5c3.1-0.1,6.1-0.7,8.7-2.3C132.2,49.4,132.1,33.2,125.9,24.8c0,0-0.8,0.5-0.9,0.5c5.7,7.7,5.7,19.7,0,27.4
				c-3.1,4.1-8,4.5-12.8,4.5c-4.7,0-9.1-1.2-12.2-5c-5.9-7.4-5.4-19.9,0-27.4c3-4.1,8.2-4.5,12.9-4.4c4.7,0,9.1,1.1,12.1,4.9
				C125.1,25.3,125.9,24.8,125.9,24.8z"/>
			<path d="M121.7,50c-2.4,3.2-5.8,3.3-9.4,3.3c-3.6,0-6.7-0.8-8.9-3.8c-4.5-5.9-3.9-16.1,0-22.1c2.1-3.3,6.1-3.3,9.6-3.3
				c3.5,0,6.6,0.8,8.8,3.8C126.3,34,125.8,43.9,121.7,50c0.2-0.2,0.7-0.2,0.9-0.5c4.5-6.7,5.1-21-3.5-25c-3.4-1.6-8.7-1.2-12.2,0
				c-1.8,0.6-3.3,1.9-4.4,3.4c-4.8,6.4-4.6,21.3,3.6,25c3.4,1.5,8.7,1.3,12.2,0c1.7-0.6,3.3-1.9,4.4-3.4
				C122.4,49.8,121.9,49.8,121.7,50z"/>
		</g>
	</g>
	<g>
		<path d="M168.7,25c-3.1-4.1-7.4-4.9-12.9-4.9c-5.5,0-9.8,0.9-13,4.9c-2.7,3.6-4.1,8.2-4.1,13.7c0,5.5,1.4,10,4.1,13.7
			c3.1,4.1,7.4,5,13,5c5.5,0,9.8-0.9,12.9-5c2.8-3.6,4.2-8.2,4.2-13.7C172.9,33.2,171.5,28.7,168.7,25z M165.3,49.8
			c-2.3,3.3-5.5,3.8-9.5,3.8c-4.1,0-7.4-0.5-9.7-3.8c-2-2.9-3-6.6-3-11c0-4.5,1-8.1,3-11.1c2.3-3.3,5.5-3.8,9.7-3.8
			c4.1,0,7.3,0.5,9.5,3.8c2.1,2.9,3.1,6.6,3.1,11.1C168.5,43.1,167.4,46.8,165.3,49.8z"/>
		<g>
			<path d="M169.1,24.8c-3.6-4.5-9-5.1-14.4-4.9c-3.4,0.1-6.4,0.9-9.3,2.6c-4.4,2.6-6.3,8.4-6.9,13.2c-0.8,5.9,0.4,12.2,3.9,17
				c3.4,4.7,9.2,5.1,14.5,5c3.1-0.1,6.1-0.7,8.7-2.3C175.4,49.4,175.3,33.2,169.1,24.8c0,0-0.8,0.5-0.9,0.5c5.7,7.7,5.7,19.7,0,27.4
				c-3.1,4.1-8,4.5-12.8,4.5c-4.7,0-9.1-1.2-12.2-5c-5.9-7.4-5.4-19.9,0-27.4c3-4.1,8.2-4.5,12.9-4.4c4.7,0,9.1,1.1,12.1,4.9
				C168.3,25.3,169.1,24.8,169.1,24.8z"/>
			<path d="M164.9,50c-2.4,3.2-5.8,3.3-9.4,3.3c-3.6,0-6.7-0.8-8.9-3.8c-4.5-5.9-3.9-16.1,0-22.1c2.1-3.3,6.1-3.3,9.6-3.3
				c3.5,0,6.6,0.8,8.8,3.8C169.5,34,169,43.9,164.9,50c0.2-0.2,0.7-0.2,0.9-0.5c4.5-6.7,5.1-21-3.5-25c-3.4-1.6-8.7-1.2-12.2,0
				c-1.8,0.6-3.3,1.9-4.4,3.4c-4.8,6.4-4.6,21.3,3.6,25c3.4,1.5,8.7,1.3,12.2,0c1.7-0.6,3.3-1.9,4.4-3.4
				C165.6,49.8,165.1,49.8,164.9,50z"/>
		</g>
	</g>
	<g>
		<path fill="#040000" d="M206.8,9.5c0.6,0.7,0.9,1.6,0.9,2.6c0,0.9-0.3,1.7-0.9,2.4c-0.7,0.7-1.5-0.1-2.6-0.1c-1.1,0-2,0.8-2.6,0.1
			c-0.6-0.6-0.8-1.5-0.8-2.4c0-1,0.3-1.9,0.8-2.6c0.6-0.7,1.5-1.1,2.6-1.1C205.3,8.4,206.1,8.8,206.8,9.5z"/>
		<g>
			<path d="M206.3,9.8c1.2,1.5,1.3,3.9-0.3,5.2c0.3-0.2,0.6-0.3,0.9-0.5c-0.6,0.2-1,0-1.6-0.2c-0.7-0.2-1.3-0.1-1.9,0.1
				c-1.5,0.4-2.1-0.8-2.2-2.2c-0.1-1,0.2-3,1.4-3.4C203.9,8.3,205.4,8.8,206.3,9.8c0.1,0.1,0.8-0.6,0.9-0.5c-1.5-1.5-3.4-1.3-5-0.3
				c-2,1.2-2.4,4-1,5.8c0.4,0.5,1,0.3,1.4,0.1c0.7-0.2,1.2-0.3,1.9-0.1c0.8,0.2,1.3,0.3,2-0.1c2-1.1,2-3.8,0.7-5.5
				C207.2,9.2,206.4,9.8,206.3,9.8z"/>
		</g>
	</g>
	<g>
		<path d="M202.7,19.3c0.4-0.4,2.6-0.4,3.1-0.1c0.5,0.4,0.7,0.9,0.7,1.5v35.5c0,0.7-0.2,1.3-0.7,1.7c-0.4,0.4-2.6,0.4-3.1,0.1
			c-0.4-0.5-0.6-1-0.6-1.7V20.7C202,20.1,202.2,19.6,202.7,19.3z"/>
		<g>
			<path d="M202.2,19.5c4-2,3.7,2.3,3.7,4.7c0,4.2,0,8.5,0,12.7c0,4.6,0,9.2,0,13.8c0,2,0.7,5.6-0.7,7.3c0.3-0.2,0.5-0.3,0.8-0.5
				c-1.8,1-3.6,0.1-3.6-1.9c0-1,0-2,0-3c0-4.2,0-8.5,0-12.7c0-4.6,0-9.2,0-13.8c0-1.8-0.7-5.6,0.6-7.1
				C202.9,19.2,202.4,19.3,202.2,19.5c-1.1,1.2-0.6,3.8-0.6,5.4c0,3.5,0,7.1,0,10.6c0,6.7,0,13.4,0,20.1c0,0.8,0,1.4,0.3,2.1
				c0.5,1.3,2.8,0.8,3.7,0.3c1.5-0.8,1.2-2.4,1.2-3.9c0-7.2,0-14.3,0-21.5c0-3.3,0-6.6,0-10c0-0.7,0-1.4,0-2.1c0-2-2.3-2.3-3.8-1.5
				C202.8,19.2,202.4,19.4,202.2,19.5z"/>
		</g>
	</g>
	<g>
		<path d="M184.5,19.3c0.4-0.4,2.6-0.4,3.1-0.1c0.5,0.4,0.7,0.9,0.7,1.5v35.5c0,0.7-0.2,1.3-0.7,1.7c-0.4,0.4-2.6,0.4-3.1,0.1
			c-0.4-0.5-0.6-1-0.6-1.7V20.7C183.8,20.1,184,19.6,184.5,19.3z"/>
		<g>
			<path d="M184,19.5c4-2,3.7,2.3,3.7,4.7c0,4.2,0,8.5,0,12.7c0,4.6,0,9.2,0,13.8c0,2,0.7,5.6-0.7,7.3c0.3-0.2,0.5-0.3,0.8-0.5
				c-1.8,1-3.6,0.1-3.6-1.9c0-1,0-2,0-3c0-4.2,0-8.5,0-12.7c0-4.6,0-9.2,0-13.8c0-1.8-0.7-5.6,0.6-7.1
				C184.7,19.2,184.2,19.3,184,19.5c-1.1,1.2-0.6,3.8-0.6,5.4c0,3.5,0,7.1,0,10.6c0,6.7,0,13.4,0,20.1c0,0.8,0,1.4,0.3,2.1
				c0.5,1.3,2.8,0.8,3.7,0.3c1.5-0.8,1.2-2.4,1.2-3.9c0-7.2,0-14.3,0-21.5c0-3.3,0-6.6,0-10c0-0.7,0-1.4,0-2.1c0-2-2.3-2.3-3.8-1.5
				C184.6,19.2,184.2,19.4,184,19.5z"/>
		</g>
	</g>
	<g>
		<path d="M219.2,19.9c0.4-0.4,2.6-0.4,3,0c0.5,0.4,0.7,1,0.7,1.7v1.9c3.4-2,7.4-3.5,11.6-3.5c5.7,0,13.2,4.4,13.2,7.4v28.8
			c0,0.7-0.2,1.3-0.7,1.7c-0.4,0.4-2.6,0.4-3,0c-0.4-0.5-0.6-1-0.6-1.7V27.4c-1.2-1.7-6.3-3.6-8.9-3.6c-3.5,0-8.8,1.6-11.6,4.3v28
			c0,0.7-0.2,1.3-0.7,1.8c-0.4,0.4-2.6,0.4-3,0c-0.4-0.4-0.6-1-0.6-1.7V21.6C218.5,20.9,218.7,20.3,219.2,19.9z"/>
		<g>
			<path d="M218.7,20.1c1.1-0.5,2.6-0.4,3.4,0.5c0.6,0.7,0.3,2.3,0.3,3.1c0,0,0.1-0.1,0.1-0.1c7.5-4.2,16.8-5,23.4,1.4
				c2.1,2,1.4,5.6,1.4,8.3c0,5,0,10.1,0,15.1c0,2,0,3.9,0,5.9c0,1.4,0.2,2.6-0.7,3.7c0.3-0.2,0.6-0.3,0.8-0.5
				c-3.6,1.8-3.6-2-3.6-4.3c0-3.5,0-7.1,0-10.6c0-3.8,0-7.6,0-11.4c0-1.1,0-2.2,0-3.4c0-1.1-0.4-1.4-1.4-2.1
				c-4.7-3.1-10.2-2.8-15.2-0.6c-1.1,0.5-4.8,2.1-4.8,3.4c0,6.7,0,13.4,0,20.1c0,1.9,0,3.9,0,5.8c0,1.3,0.1,2.5-0.7,3.6
				c0.3-0.2,0.6-0.3,0.8-0.5c-4,2-3.6-2.8-3.6-5.1c0-4.2,0-8.3,0-12.5c0-4.5,0-8.9,0-13.4c0-2-0.6-5.4,0.6-7.1
				C219.4,19.9,218.9,19.9,218.7,20.1c-1.1,1.4-0.6,4-0.6,5.7c0,3.6,0,7.2,0,10.8c0,6.4,0,12.9,0,19.3c0,2.7,2.3,3,4.3,1.8
				c1.4-0.8,0.9-3.8,0.9-5.2c0-7.3,0-14.6,0-21.9c0-0.9,0-1.8,0-2.6c0-1.8,4.8-3,6.4-3.4c2.4-0.7,4.7-0.8,7.2-0.2
				c1,0.3,6.1,1.7,6.1,3.2c0,6,0,12,0,18.1c0,3.1,0,6.3,0,9.4c0,0.7,0,1.3,0.1,1.9c0.2,1.8,2.6,1.6,3.8,1c1.6-0.9,1.3-2.5,1.3-4.1
				c0-3.4,0-6.8,0-10.2c0-4.1,0-8.3,0-12.4c0-2.2,0.4-4.5-1-6.4c-4-5-11.8-6-17.5-4.5c-1.4,0.4-2.8,0.9-4.1,1.6
				c-0.5,0.3-1,0.5-1.6,0.8c-0.9,0.5-0.7,0.1-0.7-0.6c0-2.2-1.3-3.8-3.7-2.6C219.3,19.8,219,20,218.7,20.1z"/>
		</g>
	</g>
	<linearGradient id="SVGID_1_" gradientUnits="userSpaceOnUse" x1="30.7471" y1="52.2901" x2="78.8159" y2="11.9556">
		<stop  offset="0" style="stop-color:#FFF100"/>
		<stop  offset="9.355336e-002" style="stop-color:#FBEE00"/>
		<stop  offset="0.1771" style="stop-color:#F1E300"/>
		<stop  offset="0.2568" style="stop-color:#DED200"/>
		<stop  offset="0.3343" style="stop-color:#C5BA00"/>
		<stop  offset="0.41" style="stop-color:#A39A00"/>
		<stop  offset="0.4845" style="stop-color:#7B7400"/>
		<stop  offset="0.5581" style="stop-color:#4B4700"/>
		<stop  offset="0.629" style="stop-color:#141300"/>
		<stop  offset="0.6531" style="stop-color:#000000"/>
	</linearGradient>
	<path fill="url(#SVGID_1_)" d="M81.5,15.9c-1.4-2.7-2.6-3.9-4.8-5.8c-3.2-3.4-9-4.1-13.3-5.3c-4.6-1.4-9.3-1-14.1-1
		C48.8,3.8,47,4.1,47,5c0,17.1,0,11.6,0,28.7c0,0.6,0.5,0.8,1.1,0.8c0.6,0,1.3,0,1.9,0c0.6,0,2.4-0.3,2.4-1.2c0-15.4,0-8.2,0-23.5
		c9.8,0.2,21.6,2,25.7,12.1c2.5,6.1-1.9,18.1-6.9,22c-2.3,1.7-14,8.2-16.3,9.9c-1.7,1.3,1.7,5,0.2,6.1c-2,1.6-13,4.7-13,5.6
		c0,0.9,0-0.6,0,0.3c0,0.6,19.5-6.3,20.1-6.3c2.6,0-2.7-4.3-0.7-5.7c3.5-2.4,13.7-5.8,16.7-8.8c4.1-4.1,6.5-12.8,6.8-18.3
		C85.2,22.9,83.2,19.1,81.5,15.9z"/>
	<polygon points="116.8,21.3 108.4,21.3 110.8,16.6 114.4,16.6 	"/>
	<polygon points="138.7,43.1 138.7,34.8 134,37.1 134,40.7 	"/>
	<polygon points="150.5,56.9 143.3,52.7 143,58 146.1,59.8 	"/>
	<polygon points="167.5,52.4 160.3,56.6 164.7,59.5 167.8,57.7 	"/>
	<polygon points="172.7,34.1 172.7,42.5 177.5,40.1 177.5,36.5 	"/>
	<polygon points="159.7,20.3 166.9,24.5 167.3,19.2 164.2,17.4 	"/>
	<polygon points="142.8,24.8 150,20.6 145.5,17.7 142.4,19.5 	"/>
	<polygon points="100.2,25.1 96,32.3 93.1,27.9 94.9,24.8 	"/>
	<polygon points="96,46.1 100.2,53.3 94.9,53.6 93.1,50.5 	"/>
	<polygon points="108.4,55.8 116.8,55.8 114.4,60.6 110.8,60.6 	"/>
	<polygon points="124.9,52.3 129,45.1 132,49.5 130.2,52.6 	"/>
	<polygon points="129,32.3 124.9,25.1 130.2,24.8 132,27.9 	"/>
</g>
<g>
</g>
<g>
</g>
<g>
</g>
<g>
</g>
<g>
</g>
<g>
</g>
</svg>
