<?xml version="1.0" encoding="utf-8"?>
<!-- Generator: Adobe Illustrator 18.0.0, SVG Export Plug-In . SVG Version: 6.00 Build 0)  -->
<!DOCTYPE svg PUBLIC "-//W3C//DTD SVG 1.1//EN" "http://www.w3.org/Graphics/SVG/1.1/DTD/svg11.dtd">
<svg version="1.1" id="레이어_1" xmlns="http://www.w3.org/2000/svg" xmlns:xlink="http://www.w3.org/1999/xlink" x="0px"
	 y="0px" viewBox="0 0 500 400" enable-background="new 0 0 500 400" xml:space="preserve">
<polygon points="142.9,111.7 87.8,111.7 87.8,152.9 139.4,152.9 139.4,165.4 87.8,165.4 87.8,218.2 73.9,218.2 73.9,99 142.9,99 "/>
<path d="M255.3,250.8l-55.1-146.3c-1.5-3.3-3.9-10.4-3.9-10.4v-4.9c0,0-0.1,15.7-0.1,29.2v101.1h-16.8V69.3h23.1l45.7,118.1
	c3.5,8,5.8,13.9,6.9,17.9h0.6c3-8.2,5.4-14.3,7.2-18.3l46.6-117.7h21.8v150.4h-17.3V118.3c0-7.9,0.1-22.4,0.1-22.4v-1.1
	c0,0-2.1,5.9-3.5,9"/>
<path d="M447.6,213.2c-8.8,4.7-19.8,7-32.9,7c-17,0-30.5-5.5-40.7-16.4c-10.2-10.9-15.3-25.2-15.3-43c0-19.1,5.7-34.5,17.2-46.2
	c11.5-11.7,26-17.6,43.6-17.6c11.3,0,20.7,1.6,28.1,4.9v14.9c-8.5-4.8-18-7.1-28.3-7.1c-13.7,0-24.8,4.6-33.3,13.7
	c-8.5,9.1-12.8,21.4-12.8,36.7c0,14.5,4,26.1,11.9,34.7c7.9,8.6,18.4,12.9,31.3,12.9c12,0,22.3-2.7,31.1-8V213.2z"/>
<path fill="none" stroke="#000000" stroke-width="7" stroke-linecap="round" stroke-miterlimit="1" d="M484.7,189.5
	c0,68.4-102.5,123.9-228.8,123.9S27,257.9,27,189.5"/>
<g>
	<path d="M176.6,285.9c-2.3,1.3-5.6,2-9.7,2c-3.2,0-5.9-0.6-8.1-1.7c-2.1-1.1-3.7-2.7-4.7-4.7l3.3-0.5c0.7,1.7,2,3,3.8,3.9
		c1.6,0.8,3.6,1.2,5.9,1.2c2.8,0,5.1-0.4,6.8-1.2c2-0.9,3-2.3,3-4.2c0-0.8-0.2-1.6-0.5-2.2c-0.3-0.5-0.8-0.9-1.4-1.2
		c-0.3-0.2-0.6-0.3-0.9-0.4c-0.2-0.1-0.6-0.2-1-0.3l-0.4-0.1l-2.6-0.6l-2.6-0.5c-1.2-0.2-2-0.4-2.6-0.5c-0.9-0.2-1.8-0.4-2.5-0.6
		c-2.5-0.6-4.3-1.3-5.3-1.9c-1.4-0.9-2-2.1-2-3.7c0-2,1.2-3.6,3.5-4.6c2.1-1,5-1.4,8.7-1.4c3,0,5.7,0.5,8,1.6
		c2.3,1.1,3.8,2.5,4.4,4.4l-3.3,0.4c-0.4-1.4-1.5-2.5-3.3-3.3c-1.7-0.8-3.6-1.1-5.8-1.1c-2.7,0-4.7,0.2-6.1,0.7c-2,0.7-3,1.8-3,3.5
		c0,0.7,0.2,1.3,0.6,1.8c0.4,0.4,1,0.8,1.9,1.2c0.3,0.1,0.7,0.3,1.2,0.4c0.3,0.1,0.8,0.2,1.4,0.4l0.5,0.1l4.3,0.9
		c4.3,0.8,7.2,1.6,8.6,2.3c2.3,1.1,3.5,2.7,3.5,4.9C179.9,282.9,178.8,284.6,176.6,285.9z"/>
	<path d="M212.2,287.4l-4.2-7.8h-16.4l-4.1,7.8h-3.2l13.7-24.8h3.8l13.9,24.8H212.2z M199.8,264.8l-7.2,12.9H207L199.8,264.8z"/>
	<path d="M250.7,287.4v-21.7l-12.4,21.7H236l-12.3-21.7v21.7h-3.1v-24.3h4.5l12,21.7l12.1-21.7h4.5v24.3H250.7z"/>
	<path d="M288.5,287.6v-3.8c-1.4,1.3-2.8,2.2-4.5,2.9c-2.1,0.8-4.7,1.2-7.9,1.2c-4.8,0-8.6-1-11.3-3.1c-2.9-2.2-4.3-5.4-4.3-9.5
		c0-4,1.3-7,4-9.2c2.7-2.2,6.6-3.4,11.7-3.4c4.8,0,8.4,0.8,10.9,2.4c1.6,1,2.9,2.6,3.8,4.6l-3.1,0.6c-0.9-1.8-2.1-3.2-3.7-4.1
		c-1.9-1.1-4.6-1.6-7.9-1.6c-3.8,0-6.7,0.9-9,2.6c-2.4,1.9-3.6,4.6-3.6,8.1c0,3.5,1.2,6.2,3.6,8.1c2.2,1.8,5.2,2.7,8.9,2.7
		c4,0,7.1-0.8,9.5-2.5c2-1.4,3-3.1,3-4.9v-1.5h-11.7v-1.8h14.7v12.2H288.5z"/>
	<path d="M324.7,287.4l-4.2-7.8H304l-4.1,7.8h-3.2l13.7-24.8h3.8l13.9,24.8H324.7z M312.3,264.8l-7.2,12.9h14.4L312.3,264.8z"/>
	<path d="M356.9,287.4l-14.7-12.2l-6.3,4.2v8h-3.1v-24.3h3.1v13.7c2.5-1.7,5.7-3.9,9.5-6.7c3.1-2.3,6.3-4.6,9.4-7h4.1L344.3,274
		l16.9,13.5H356.9z"/>
</g>
<g>
</g>
<g>
</g>
<g>
</g>
<g>
</g>
<g>
</g>
<g>
</g>
</svg>
